<svg xmlns="http://www.w3.org/2000/svg" xmlns:xlink="http://www.w3.org/1999/xlink">
<g id="rotateSquare">
<path fill="#666666" stroke="#000000" stroke-width="0.75" d="M14.233,8.375c-0.021-0.262-0.011-0.528-0.058-0.787
	c0.62-0.282,1.254-0.634,1.821-1.04c-0.087-0.392-0.21-0.772-0.357-1.144c-0.724-0.046-1.457-0.004-2.134,0.099
	c-0.143-0.221-0.261-0.46-0.427-0.665c-0.151-0.216-0.323-0.416-0.506-0.606c0.352-0.609,0.624-1.232,0.861-1.913
	c-0.302-0.258-0.619-0.503-0.96-0.711C11.858,2,11.303,2.442,10.803,2.944c-0.232-0.125-0.486-0.205-0.732-0.297
	C9.818,2.573,9.563,2.5,9.305,2.456c-0.078-0.674-0.221-1.382-0.43-2.053C8.477,0.374,8.08,0.362,7.682,0.395
	C7.415,1.06,7.227,1.774,7.114,2.456C6.855,2.5,6.601,2.573,6.348,2.647C6.101,2.739,5.85,2.819,5.616,2.944
	C5.149,2.43,4.628,1.957,4.062,1.536C3.714,1.733,3.401,1.981,3.086,2.227c0.195,0.718,0.433,1.372,0.759,2.004
	C3.663,4.422,3.492,4.622,3.341,4.837C3.173,5.042,3.056,5.281,2.914,5.502C2.247,5.366,1.547,5.288,0.829,5.274
	C0.688,5.648,0.542,6.021,0.455,6.413C1.009,6.875,1.623,7.27,2.243,7.588C2.195,7.847,2.206,8.113,2.186,8.375
	c0.021,0.262,0.009,0.528,0.057,0.787c-0.62,0.282-1.252,0.634-1.822,1.04c0.088,0.392,0.211,0.771,0.359,1.144
	c0.723,0.047,1.456,0.004,2.134-0.099c0.143,0.222,0.26,0.461,0.427,0.665c0.151,0.217,0.322,0.416,0.504,0.607
	c-0.351,0.609-0.624,1.231-0.862,1.912c0.303,0.258,0.621,0.504,0.961,0.711c0.616-0.393,1.172-0.835,1.672-1.337
	c0.233,0.124,0.484,0.205,0.731,0.297c0.252,0.074,0.507,0.146,0.766,0.191c0.078,0.675,0.221,1.383,0.43,2.054
	c0.397,0.028,0.795,0.041,1.192,0.008c0.267-0.665,0.455-1.38,0.568-2.062c0.259-0.045,0.514-0.117,0.766-0.191
	c0.246-0.092,0.5-0.173,0.732-0.297c0.467,0.514,0.988,0.988,1.554,1.409c0.348-0.198,0.662-0.446,0.976-0.691
	c-0.194-0.718-0.432-1.371-0.759-2.004c0.183-0.191,0.354-0.391,0.506-0.607c0.166-0.204,0.284-0.443,0.427-0.665
	c0.667,0.137,1.366,0.214,2.084,0.229c0.142-0.374,0.286-0.747,0.375-1.139c-0.555-0.462-1.169-0.856-1.789-1.175
	C14.223,8.903,14.213,8.637,14.233,8.375z M11.213,10.555c-0.112,0.161-0.238,0.31-0.376,0.447
	c-0.414,0.413-0.932,0.722-1.479,0.907c-0.735,0.237-1.562,0.238-2.297,0c-0.547-0.186-1.065-0.494-1.479-0.907
	c-0.138-0.138-0.264-0.286-0.376-0.447c-0.468-0.629-0.702-1.396-0.714-2.18c0.012-0.785,0.246-1.551,0.714-2.18
	c0.448-0.643,1.125-1.107,1.855-1.354c0.735-0.238,1.562-0.238,2.297,0c0.729,0.248,1.406,0.712,1.854,1.354
	c0.469,0.628,0.701,1.395,0.713,2.18C11.914,9.159,11.682,9.926,11.213,10.555z"/>
<path fill="#292B20" d="M6.917,12.35c-0.615-0.208-1.198-0.555-1.664-1.02C5.719,11.795,6.302,12.142,6.917,12.35
	c0.827,0.27,1.757,0.269,2.584,0.001c0.615-0.209,1.197-0.556,1.663-1.021c-0.466,0.465-1.048,0.812-1.663,1.02
	C8.675,12.618,7.744,12.618,6.917,12.35z"/>
</g>
</svg>